<svg xmlns="http://www.w3.org/2000/svg" viewBox="0 0 32 32">
  <defs>
    <linearGradient id="g" x1="0" y1="0" x2="1" y2="1">
      <stop offset="0%" stop-color="#a855f7"/>
      <stop offset="100%" stop-color="#7c3aed"/>
    </linearGradient>
  </defs>
  <rect width="32" height="32" rx="6" fill="#0d0a1a"/>
  <path d="M16 6a5 5 0 0 0-5 5v3h-1a2 2 0 0 0-2 2v8a2 2 0 0 0 2 2h12a2 2 0 0 0 2-2v-8a2 2 0 0 0-2-2h-1v-3a5 5 0 0 0-5-5zm-3 8v-3a3 3 0 1 1 6 0v3h-6zm4 6v3h-2v-3a1.5 1.5 0 1 1 2 0z" fill="url(#g)"/>
</svg>
